<?xml version="1.0" encoding="UTF-8" standalone="no"?>
<svg
   width="256"
   height="256"
   viewBox="0 0 256 256"
   fill="none"
   version="1.1"
   id="svg2633"
   sodipodi:docname="Offline.svg"
   xml:space="preserve"
   inkscape:version="1.2.1 (9c6d41e410, 2022-07-14)"
   xmlns:inkscape="http://www.inkscape.org/namespaces/inkscape"
   xmlns:sodipodi="http://sodipodi.sourceforge.net/DTD/sodipodi-0.dtd"
   xmlns="http://www.w3.org/2000/svg"
   xmlns:svg="http://www.w3.org/2000/svg"><defs
     id="defs2637" /><sodipodi:namedview
     id="namedview2635"
     pagecolor="#ffffff"
     bordercolor="#000000"
     borderopacity="0.25"
     inkscape:showpageshadow="2"
     inkscape:pageopacity="0.0"
     inkscape:pagecheckerboard="0"
     inkscape:deskcolor="#d1d1d1"
     showgrid="false"
     inkscape:zoom="1.1324757"
     inkscape:cx="50.332206"
     inkscape:cy="121.41541"
     inkscape:window-width="1920"
     inkscape:window-height="1009"
     inkscape:window-x="-8"
     inkscape:window-y="-8"
     inkscape:window-maximized="1"
     inkscape:current-layer="svg2633" /><rect
     width="256"
     height="256"
     rx="60"
     fill="#242938"
     id="rect2617" /><g
     id="g10622"
     style="display:none"><path
       d="M 96.232591,132.98773 Z M 30.473329,220.5 V 100.48317 l 80.011261,-60.008417 53.75753,40.505682 q -6.25087,0.750103 -11.75164,2.875403 -5.50078,2.125296 -10.50147,5.625789 L 110.48459,65.478258 50.476134,110.48457 v 90.01263 h 40.00565 V 220.5 Z m 80.011261,0 v -19.00266 q 0,-5.25074 2.62536,-9.87639 2.62538,-4.62565 7.12601,-7.37602 11.50161,-6.75096 24.12838,-10.25144 12.62677,-3.5005 26.12866,-3.5005 13.5019,0 26.12867,3.5005 12.62677,3.50048 24.12838,10.25144 4.50063,2.75037 7.12599,7.37602 2.62538,4.62565 2.62538,9.87639 V 220.5 Z m 21.50301,-20.0028 h 77.0108 q -8.75123,-5.0007 -18.5026,-7.50105 -9.75137,-2.50035 -20.0028,-2.50035 -10.25144,0 -20.0028,2.50035 -9.75137,2.50035 -18.5026,7.50105 z m 38.5054,-40.00562 q -12.50175,0 -21.25298,-8.75122 -8.75122,-8.75123 -8.75122,-21.25298 0,-12.50176 8.75122,-21.25298 8.75123,-8.75123 21.25298,-8.75123 12.50175,0 21.25298,8.75123 8.75123,8.75122 8.75123,21.25298 0,12.50175 -8.75123,21.25298 -8.75123,8.75122 -21.25298,8.75122 z m 0,-20.00279 q 4.25059,0 7.126,-2.87541 2.8754,-2.8754 2.8754,-7.126 0,-4.2506 -2.8754,-7.12601 -2.87541,-2.87539 -7.126,-2.87539 -4.2506,0 -7.126,2.87539 -2.87541,2.87541 -2.87541,7.12601 0,4.2506 2.87541,7.126 2.8754,2.87541 7.126,2.87541 z m 0,60.00841 z"
       id="path7990"
       style="fill:#ffc300;fill-opacity:1;stroke-width:0.250035" /><path
       d="M 91.257842,128.01299 Z M 25.498581,215.52525 V 95.508419 l 80.011259,-60.008416 53.75753,40.505681 q -6.25087,0.750105 -11.75164,2.875405 -5.50078,2.125301 -10.50147,5.625783 L 105.50984,60.503509 45.501386,105.50982 v 90.01263 h 40.005648 v 20.0028 z m 80.011259,0 v -19.00266 q 0,-5.25074 2.62536,-9.87639 2.62538,-4.62565 7.12601,-7.37602 11.50161,-6.75096 24.12838,-10.25144 12.62677,-3.5005 26.12866,-3.5005 13.5019,0 26.12867,3.5005 12.62677,3.50048 24.12838,10.25144 4.50063,2.75037 7.12599,7.37602 2.62538,4.62565 2.62538,9.87639 v 19.00266 z m 21.50301,-20.0028 h 77.0108 q -8.75123,-5.0007 -18.5026,-7.50105 -9.75137,-2.50035 -20.0028,-2.50035 -10.25144,0 -20.0028,2.50035 -9.75137,2.50035 -18.5026,7.50105 z m 38.5054,-40.00562 q -12.50175,0 -21.25298,-8.75122 -8.75122,-8.75123 -8.75122,-21.25298 0,-12.50176 8.75122,-21.25298 8.75123,-8.751231 21.25298,-8.751231 12.50175,0 21.25298,8.751231 8.75123,8.75122 8.75123,21.25298 0,12.50175 -8.75123,21.25298 -8.75123,8.75122 -21.25298,8.75122 z m 0,-20.00279 q 4.25059,0 7.126,-2.87541 2.8754,-2.8754 2.8754,-7.126 0,-4.2506 -2.8754,-7.12601 -2.87541,-2.87539 -7.126,-2.87539 -4.2506,0 -7.126,2.87539 -2.87541,2.87541 -2.87541,7.12601 0,4.2506 2.87541,7.126 2.8754,2.87541 7.126,2.87541 z m 0,60.00841 z"
       id="path8372"
       style="fill:#ffd60a;fill-opacity:1;stroke-width:0.250035"
       inkscape:label="path8372" /></g><g
     id="g8418"
     transform="translate(158.94381,226.05341)"
     style="display:none"><path
       d="m 132,224.5 q -27.98125,0 -50.065622,-14.68437 -22.084376,-14.68438 -33.184376,-38.04063 -2.54375,-1.15625 -4.625,-2.08125 -2.081249,-0.925 -4.1625,-2.08125 -4.625,-2.54375 -7.16875,-6.70625 -2.54375,-4.1625 -2.54375,-9.48125 v -38.85 q 0,-5.31875 2.54375,-9.48125 2.54375,-4.162502 7.16875,-6.706252 2.08125,-1.15625 4.1625,-2.08125 2.08125,-0.925 4.625,-2.08125 11.1,-23.356246 33.184376,-38.040616 Q 104.01875,39.500002 132,39.500002 q 27.98125,0 50.06563,14.68438 22.08437,14.68437 33.18437,38.040616 2.54375,1.15625 4.625,2.08125 2.08125,0.925 4.1625,2.08125 4.625,2.54375 7.16875,6.821882 2.54375,4.27812 2.54375,9.36562 v 38.85 q 0,5.0875 -2.54375,9.36562 -2.54375,4.27813 -7.16875,6.82188 -2.08125,1.15625 -4.1625,2.08125 -2.08125,0.925 -4.625,2.08125 -11.1,23.35625 -33.18437,38.04063 Q 159.98125,224.5 132,224.5 Z m 0,-18.5 q 15.95625,0 30.29375,-6.59062 14.3375,-6.59063 24.74375,-18.38438 -13.64375,3.2375 -27.40312,4.85625 Q 145.875,187.5 132,187.5 q -13.875,0 -27.63437,-1.61875 Q 90.606251,184.2625 76.962503,181.025 87.36875,192.81875 101.70625,199.40938 116.04375,206 132,206 Z m 0,-74 z m 0,-73.999998 q -15.95625,0 -30.29375,6.59063 -14.3375,6.590616 -24.743747,18.384366 13.643748,-3.2375 27.403127,-4.85625 13.75937,-1.61875 27.63437,-1.61875 13.875,0 27.63438,1.61875 13.75937,1.61875 27.40312,4.85625 Q 176.63125,71.181248 162.29375,64.590632 147.95625,58.000002 132,58.000002 Z M 132,169 q 24.74375,0 46.36563,-4.625 21.62187,-4.625 36.88437,-12.95 v -38.85 q -15.2625,-8.325 -36.88437,-12.950002 -21.62188,-4.625 -46.36563,-4.625 -24.74375,0 -46.36562,4.625 Q 64.012503,104.25 48.750002,112.575 v 38.85 Q 64.012503,159.75 85.63438,164.375 107.25625,169 132,169 Z"
       id="path8403"
       style="fill:#073042;fill-opacity:1;stroke-width:0.23125" /><path
       d="m 128,220.5 q -27.98125,0 -50.065627,-14.68437 -22.08437,-14.68438 -33.18437,-38.04063 -2.54375,-1.15625 -4.625,-2.08125 -2.08125,-0.925 -4.1625,-2.08125 -4.625,-2.54375 -7.16875,-6.70625 -2.54375,-4.1625 -2.54375,-9.48125 v -38.85 q 0,-5.31875 2.54375,-9.48125 2.54375,-4.1625 7.16875,-6.70625 2.08125,-1.15625 4.1625,-2.08125 2.08125,-0.925 4.625,-2.08125 11.1,-23.35624 33.18437,-38.04061 Q 100.01874,35.5 128,35.5 q 27.98124,0 50.06562,14.68439 22.08437,14.68437 33.18438,38.04061 2.54374,1.15625 4.625,2.08125 2.08125,0.925 4.1625,2.08125 4.625,2.54375 7.16875,6.82188 2.54375,4.27812 2.54375,9.36562 v 38.85 q 0,5.0875 -2.54375,9.36562 -2.54375,4.27813 -7.16875,6.82188 -2.08125,1.15625 -4.1625,2.08125 -2.08126,0.925 -4.625,2.08125 -11.10001,23.35625 -33.18438,38.04063 Q 155.98124,220.5 128,220.5 Z m 0,-18.5 q 15.95625,0 30.29374,-6.59062 14.3375,-6.59063 24.74375,-18.38438 -13.64375,3.2375 -27.40312,4.85625 -13.75938,1.61875 -27.63438,1.61875 -13.875,0 -27.63437,-1.61875 -13.759377,-1.61875 -27.403127,-4.85625 10.40625,11.79375 24.74375,18.38438 Q 112.04374,202 128,202 Z m 0,-74 z m 0,-73.99999 q -15.95625,0 -30.293757,6.59063 -14.3375,6.59062 -24.74375,18.38437 13.64375,-3.2375 27.403137,-4.85625 Q 114.125,72.50001 128,72.50001 q 13.875,0 27.63438,1.61875 13.75937,1.61875 27.40312,4.85625 Q 172.63125,67.18126 158.29375,60.59064 143.95625,54.00001 128,54.00001 Z M 128,165 q 24.74374,0 46.36563,-4.625 21.62187,-4.625 36.88437,-12.95 v -38.85 Q 195.9875,100.25 174.36563,95.625 152.74375,91 128,91 q -24.74375,0 -46.365627,4.625 -21.62187,4.625 -36.88437,12.95 v 38.85 q 15.2625,8.325 36.88437,12.95 Q 103.25625,165 128,165 Z"
       id="path8412"
       style="fill:#009fb7;fill-opacity:1;stroke-width:0.23125" /></g><g
     id="g10606"
     style="display:none"><path
       d="M 370.41066,201.86338 Z M 304.6514,289.37565 V 169.35882 l 80.01126,-60.00842 53.75753,40.50568 q -6.25087,0.75011 -11.75164,2.87541 -5.50078,2.12529 -10.50147,5.62578 l -31.50442,-24.00336 -60.00845,45.00631 v 90.01263 h 40.00565 v 20.0028 z m 80.01126,0 v -19.00266 q 0,-5.25074 2.62536,-9.87639 2.62538,-4.62565 7.12601,-7.37602 11.50161,-6.75096 24.12838,-10.25144 12.62677,-3.5005 26.12866,-3.5005 13.5019,0 26.12867,3.5005 12.62677,3.50048 24.12838,10.25144 4.50063,2.75037 7.12599,7.37602 2.62538,4.62565 2.62538,9.87639 v 19.00266 z m 21.50301,-20.0028 h 77.0108 q -8.75123,-5.0007 -18.5026,-7.50105 -9.75137,-2.50035 -20.0028,-2.50035 -10.25144,0 -20.0028,2.50035 -9.75137,2.50035 -18.5026,7.50105 z m 38.5054,-40.00562 q -12.50175,0 -21.25298,-8.75122 -8.75122,-8.75123 -8.75122,-21.25298 0,-12.50176 8.75122,-21.25298 8.75123,-8.75123 21.25298,-8.75123 12.50175,0 21.25298,8.75123 8.75123,8.75122 8.75123,21.25298 0,12.50175 -8.75123,21.25298 -8.75123,8.75122 -21.25298,8.75122 z m 0,-20.00279 q 4.25059,0 7.126,-2.87541 2.8754,-2.8754 2.8754,-7.126 0,-4.2506 -2.8754,-7.12601 -2.87541,-2.87539 -7.126,-2.87539 -4.2506,0 -7.126,2.87539 -2.87541,2.87541 -2.87541,7.12601 0,4.2506 2.87541,7.126 2.8754,2.87541 7.126,2.87541 z m 0,60.00841 z"
       id="path9874"
       style="fill:#57cc99;fill-opacity:1;stroke-width:0.250035" /><path
       d="M 365.43591,196.88864 Z M 299.67665,284.4009 V 164.38407 l 80.01126,-60.00842 53.75753,40.50568 q -6.25087,0.75011 -11.75164,2.87541 -5.50078,2.1253 -10.50147,5.62578 l -31.50442,-24.00336 -60.00845,45.00631 v 90.01263 h 40.00565 v 20.0028 z m 80.01126,0 v -19.00266 q 0,-5.25074 2.62536,-9.87639 2.62538,-4.62565 7.12601,-7.37602 11.50161,-6.75096 24.12838,-10.25144 12.62677,-3.5005 26.12866,-3.5005 13.5019,0 26.12867,3.5005 12.62677,3.50048 24.12838,10.25144 4.50063,2.75037 7.12599,7.37602 2.62538,4.62565 2.62538,9.87639 v 19.00266 z m 21.50301,-20.0028 h 77.0108 q -8.75123,-5.0007 -18.5026,-7.50105 -9.75137,-2.50035 -20.0028,-2.50035 -10.25144,0 -20.0028,2.50035 -9.75137,2.50035 -18.5026,7.50105 z m 38.5054,-40.00562 q -12.50175,0 -21.25298,-8.75122 -8.75122,-8.75123 -8.75122,-21.25298 0,-12.50176 8.75122,-21.25298 8.75123,-8.75123 21.25298,-8.75123 12.50175,0 21.25298,8.75123 8.75123,8.75122 8.75123,21.25298 0,12.50175 -8.75123,21.25298 -8.75123,8.75122 -21.25298,8.75122 z m 0,-20.00279 q 4.25059,0 7.126,-2.87541 2.8754,-2.8754 2.8754,-7.126 0,-4.2506 -2.8754,-7.12601 -2.87541,-2.87539 -7.126,-2.87539 -4.2506,0 -7.126,2.87539 -2.87541,2.87541 -2.87541,7.12601 0,4.2506 2.87541,7.126 2.8754,2.87541 7.126,2.87541 z m 0,60.00841 z"
       id="path9876"
       style="fill:#80ed99;fill-opacity:1;stroke-width:0.250035"
       inkscape:label="path8372" /></g><path
     d="M 39.5,224.5 V 203.94444 H 60.05556 V 39.5 h 102.77777 v 10.27778 h 41.11111 V 203.94444 H 224.5 V 224.5 H 183.38889 V 70.33333 H 162.83333 V 224.5 Z M 80.61111,60.05556 v 143.88888 z m 41.11111,82.22222 q 4.36806,0 7.32292,-2.95486 Q 132,136.36806 132,132 q 0,-4.36806 -2.95486,-7.32292 -2.95486,-2.95486 -7.32292,-2.95486 -4.36805,0 -7.32291,2.95486 -2.95487,2.95486 -2.95487,7.32292 0,4.36806 2.95487,7.32292 2.95486,2.95486 7.32291,2.95486 z m -41.11111,61.66666 h 61.66667 V 60.05556 H 80.61111 Z"
     id="path10641"
     style="fill:#8c2f39;fill-opacity:0.98823529;stroke-width:0.256944" /><path
     d="M 35.5,220.5 V 199.94444 H 56.05556 V 35.5 h 102.77777 v 10.27778 h 41.11111 V 199.94444 H 220.5 V 220.5 H 179.38889 V 66.33333 H 158.83333 V 220.5 Z M 76.61111,56.05556 v 143.88888 z m 41.11111,82.22222 q 4.36806,0 7.32292,-2.95486 Q 128,132.36806 128,128 q 0,-4.36806 -2.95486,-7.32292 -2.95486,-2.95486 -7.32292,-2.95486 -4.36805,0 -7.32291,2.95486 -2.95487,2.95486 -2.95487,7.32292 0,4.36806 2.95487,7.32292 2.95486,2.95486 7.32291,2.95486 z m -41.11111,61.66666 h 61.66667 V 56.05556 H 76.61111 Z"
     id="path10632"
     style="fill:#b23a48;fill-opacity:0.98823529;stroke-width:0.256944" /></svg>
