<?xml version="1.0" encoding="UTF-8" standalone="no"?>
<svg
   width="256"
   height="256"
   viewBox="0 0 256 256"
   fill="none"
   version="1.1"
   id="svg2633"
   sodipodi:docname="Online.svg"
   xml:space="preserve"
   inkscape:version="1.2.1 (9c6d41e410, 2022-07-14)"
   xmlns:inkscape="http://www.inkscape.org/namespaces/inkscape"
   xmlns:sodipodi="http://sodipodi.sourceforge.net/DTD/sodipodi-0.dtd"
   xmlns="http://www.w3.org/2000/svg"
   xmlns:svg="http://www.w3.org/2000/svg"><defs
     id="defs2637" /><sodipodi:namedview
     id="namedview2635"
     pagecolor="#ffffff"
     bordercolor="#000000"
     borderopacity="0.25"
     inkscape:showpageshadow="2"
     inkscape:pageopacity="0.0"
     inkscape:pagecheckerboard="0"
     inkscape:deskcolor="#d1d1d1"
     showgrid="false"
     inkscape:zoom="1.1324757"
     inkscape:cx="50.332206"
     inkscape:cy="121.41541"
     inkscape:window-width="1920"
     inkscape:window-height="1009"
     inkscape:window-x="-8"
     inkscape:window-y="-8"
     inkscape:window-maximized="1"
     inkscape:current-layer="svg2633" /><rect
     width="256"
     height="256"
     rx="60"
     fill="#242938"
     id="rect2617" /><g
     id="g10622"
     style="display:none"><path
       d="M 96.232591,132.98773 Z M 30.473329,220.5 V 100.48317 l 80.011261,-60.008417 53.75753,40.505682 q -6.25087,0.750103 -11.75164,2.875403 -5.50078,2.125296 -10.50147,5.625789 L 110.48459,65.478258 50.476134,110.48457 v 90.01263 h 40.00565 V 220.5 Z m 80.011261,0 v -19.00266 q 0,-5.25074 2.62536,-9.87639 2.62538,-4.62565 7.12601,-7.37602 11.50161,-6.75096 24.12838,-10.25144 12.62677,-3.5005 26.12866,-3.5005 13.5019,0 26.12867,3.5005 12.62677,3.50048 24.12838,10.25144 4.50063,2.75037 7.12599,7.37602 2.62538,4.62565 2.62538,9.87639 V 220.5 Z m 21.50301,-20.0028 h 77.0108 q -8.75123,-5.0007 -18.5026,-7.50105 -9.75137,-2.50035 -20.0028,-2.50035 -10.25144,0 -20.0028,2.50035 -9.75137,2.50035 -18.5026,7.50105 z m 38.5054,-40.00562 q -12.50175,0 -21.25298,-8.75122 -8.75122,-8.75123 -8.75122,-21.25298 0,-12.50176 8.75122,-21.25298 8.75123,-8.75123 21.25298,-8.75123 12.50175,0 21.25298,8.75123 8.75123,8.75122 8.75123,21.25298 0,12.50175 -8.75123,21.25298 -8.75123,8.75122 -21.25298,8.75122 z m 0,-20.00279 q 4.25059,0 7.126,-2.87541 2.8754,-2.8754 2.8754,-7.126 0,-4.2506 -2.8754,-7.12601 -2.87541,-2.87539 -7.126,-2.87539 -4.2506,0 -7.126,2.87539 -2.87541,2.87541 -2.87541,7.12601 0,4.2506 2.87541,7.126 2.8754,2.87541 7.126,2.87541 z m 0,60.00841 z"
       id="path7990"
       style="fill:#ffc300;fill-opacity:1;stroke-width:0.250035" /><path
       d="M 91.257842,128.01299 Z M 25.498581,215.52525 V 95.508419 l 80.011259,-60.008416 53.75753,40.505681 q -6.25087,0.750105 -11.75164,2.875405 -5.50078,2.125301 -10.50147,5.625783 L 105.50984,60.503509 45.501386,105.50982 v 90.01263 h 40.005648 v 20.0028 z m 80.011259,0 v -19.00266 q 0,-5.25074 2.62536,-9.87639 2.62538,-4.62565 7.12601,-7.37602 11.50161,-6.75096 24.12838,-10.25144 12.62677,-3.5005 26.12866,-3.5005 13.5019,0 26.12867,3.5005 12.62677,3.50048 24.12838,10.25144 4.50063,2.75037 7.12599,7.37602 2.62538,4.62565 2.62538,9.87639 v 19.00266 z m 21.50301,-20.0028 h 77.0108 q -8.75123,-5.0007 -18.5026,-7.50105 -9.75137,-2.50035 -20.0028,-2.50035 -10.25144,0 -20.0028,2.50035 -9.75137,2.50035 -18.5026,7.50105 z m 38.5054,-40.00562 q -12.50175,0 -21.25298,-8.75122 -8.75122,-8.75123 -8.75122,-21.25298 0,-12.50176 8.75122,-21.25298 8.75123,-8.751231 21.25298,-8.751231 12.50175,0 21.25298,8.751231 8.75123,8.75122 8.75123,21.25298 0,12.50175 -8.75123,21.25298 -8.75123,8.75122 -21.25298,8.75122 z m 0,-20.00279 q 4.25059,0 7.126,-2.87541 2.8754,-2.8754 2.8754,-7.126 0,-4.2506 -2.8754,-7.12601 -2.87541,-2.87539 -7.126,-2.87539 -4.2506,0 -7.126,2.87539 -2.87541,2.87541 -2.87541,7.12601 0,4.2506 2.87541,7.126 2.8754,2.87541 7.126,2.87541 z m 0,60.00841 z"
       id="path8372"
       style="fill:#ffd60a;fill-opacity:1;stroke-width:0.250035"
       inkscape:label="path8372" /></g><g
     id="g10606"
     style="display:none"><path
       d="M 370.41066,201.86338 Z M 304.6514,289.37565 V 169.35882 l 80.01126,-60.00842 53.75753,40.50568 q -6.25087,0.75011 -11.75164,2.87541 -5.50078,2.12529 -10.50147,5.62578 l -31.50442,-24.00336 -60.00845,45.00631 v 90.01263 h 40.00565 v 20.0028 z m 80.01126,0 v -19.00266 q 0,-5.25074 2.62536,-9.87639 2.62538,-4.62565 7.12601,-7.37602 11.50161,-6.75096 24.12838,-10.25144 12.62677,-3.5005 26.12866,-3.5005 13.5019,0 26.12867,3.5005 12.62677,3.50048 24.12838,10.25144 4.50063,2.75037 7.12599,7.37602 2.62538,4.62565 2.62538,9.87639 v 19.00266 z m 21.50301,-20.0028 h 77.0108 q -8.75123,-5.0007 -18.5026,-7.50105 -9.75137,-2.50035 -20.0028,-2.50035 -10.25144,0 -20.0028,2.50035 -9.75137,2.50035 -18.5026,7.50105 z m 38.5054,-40.00562 q -12.50175,0 -21.25298,-8.75122 -8.75122,-8.75123 -8.75122,-21.25298 0,-12.50176 8.75122,-21.25298 8.75123,-8.75123 21.25298,-8.75123 12.50175,0 21.25298,8.75123 8.75123,8.75122 8.75123,21.25298 0,12.50175 -8.75123,21.25298 -8.75123,8.75122 -21.25298,8.75122 z m 0,-20.00279 q 4.25059,0 7.126,-2.87541 2.8754,-2.8754 2.8754,-7.126 0,-4.2506 -2.8754,-7.12601 -2.87541,-2.87539 -7.126,-2.87539 -4.2506,0 -7.126,2.87539 -2.87541,2.87541 -2.87541,7.12601 0,4.2506 2.87541,7.126 2.8754,2.87541 7.126,2.87541 z m 0,60.00841 z"
       id="path9874"
       style="fill:#57cc99;fill-opacity:1;stroke-width:0.250035" /><path
       d="M 365.43591,196.88864 Z M 299.67665,284.4009 V 164.38407 l 80.01126,-60.00842 53.75753,40.50568 q -6.25087,0.75011 -11.75164,2.87541 -5.50078,2.1253 -10.50147,5.62578 l -31.50442,-24.00336 -60.00845,45.00631 v 90.01263 h 40.00565 v 20.0028 z m 80.01126,0 v -19.00266 q 0,-5.25074 2.62536,-9.87639 2.62538,-4.62565 7.12601,-7.37602 11.50161,-6.75096 24.12838,-10.25144 12.62677,-3.5005 26.12866,-3.5005 13.5019,0 26.12867,3.5005 12.62677,3.50048 24.12838,10.25144 4.50063,2.75037 7.12599,7.37602 2.62538,4.62565 2.62538,9.87639 v 19.00266 z m 21.50301,-20.0028 h 77.0108 q -8.75123,-5.0007 -18.5026,-7.50105 -9.75137,-2.50035 -20.0028,-2.50035 -10.25144,0 -20.0028,2.50035 -9.75137,2.50035 -18.5026,7.50105 z m 38.5054,-40.00562 q -12.50175,0 -21.25298,-8.75122 -8.75122,-8.75123 -8.75122,-21.25298 0,-12.50176 8.75122,-21.25298 8.75123,-8.75123 21.25298,-8.75123 12.50175,0 21.25298,8.75123 8.75123,8.75122 8.75123,21.25298 0,12.50175 -8.75123,21.25298 -8.75123,8.75122 -21.25298,8.75122 z m 0,-20.00279 q 4.25059,0 7.126,-2.87541 2.8754,-2.8754 2.8754,-7.126 0,-4.2506 -2.8754,-7.12601 -2.87541,-2.87539 -7.126,-2.87539 -4.2506,0 -7.126,2.87539 -2.87541,2.87541 -2.87541,7.12601 0,4.2506 2.87541,7.126 2.8754,2.87541 7.126,2.87541 z m 0,60.00841 z"
       id="path9876"
       style="fill:#80ed99;fill-opacity:1;stroke-width:0.250035"
       inkscape:label="path8372" /></g><g
     id="g13565"
     transform="translate(-30.022719,234.88363)"
     style="display:none"><path
       d="M 39.5,224.5 V 203.94444 H 60.05556 V 39.5 h 102.77777 v 10.27778 h 41.11111 V 203.94444 H 224.5 V 224.5 H 183.38889 V 70.33333 H 162.83333 V 224.5 Z M 80.61111,60.05556 v 143.88888 z m 41.11111,82.22222 q 4.36806,0 7.32292,-2.95486 Q 132,136.36806 132,132 q 0,-4.36806 -2.95486,-7.32292 -2.95486,-2.95486 -7.32292,-2.95486 -4.36805,0 -7.32291,2.95486 -2.95487,2.95486 -2.95487,7.32292 0,4.36806 2.95487,7.32292 2.95486,2.95486 7.32291,2.95486 z m -41.11111,61.66666 h 61.66667 V 60.05556 H 80.61111 Z"
       id="path10641"
       style="fill:#8c2f39;fill-opacity:0.988235;stroke-width:0.256944" /><path
       d="M 35.5,220.5 V 199.94444 H 56.05556 V 35.5 h 102.77777 v 10.27778 h 41.11111 V 199.94444 H 220.5 V 220.5 H 179.38889 V 66.33333 H 158.83333 V 220.5 Z M 76.61111,56.05556 v 143.88888 z m 41.11111,82.22222 q 4.36806,0 7.32292,-2.95486 Q 128,132.36806 128,128 q 0,-4.36806 -2.95486,-7.32292 -2.95486,-2.95486 -7.32292,-2.95486 -4.36805,0 -7.32291,2.95486 -2.95487,2.95486 -2.95487,7.32292 0,4.36806 2.95487,7.32292 2.95486,2.95486 7.32291,2.95486 z m -41.11111,61.66666 h 61.66667 V 56.05556 H 76.61111 Z"
       id="path10632"
       style="fill:#b23a48;fill-opacity:0.988235;stroke-width:0.256944" /></g><g
     id="g15043"
     transform="translate(-1.999999,-2)"><path
       d="m 58.000018,224.49999 v -86.71877 l -16.65,12.71875 -11.09999,-14.8 27.74999,-21.27499 v -28.675 h 18.499993 v 14.56875 L 132,57.99999 l 101.74997,77.69998 -11.1,14.56875 -16.64999,-12.4875 V 224.5 Z M 76.500011,206 H 122.75 v -36.99999 h 18.49999 V 206 h 46.24999 V 123.67497 L 132,81.35623 76.500011,123.67497 Z M 58.000018,76.49999 q 0,-11.5625 8.09375,-19.65625 8.09374,-8.09374 19.656241,-8.09374 3.931248,0 6.590622,-2.65938 Q 95.000006,43.43125 95.000006,39.5 H 113.5 q 0,11.5625 -8.09375,19.65624 -8.093745,8.09375 -19.656242,8.09375 -3.931249,0 -6.590623,2.65937 -2.659374,2.65938 -2.659374,6.59063 z M 76.500011,206 H 187.49998 Z"
       id="path13586"
       style="fill:#4d908e;fill-opacity:0.988235;stroke-width:0.23125" /><path
       d="m 54.000018,220.49999 v -86.71877 l -16.65,12.71875 -11.09999,-14.8 27.74999,-21.27499 v -28.675 H 72.500011 V 96.31873 L 128,53.99999 l 101.74997,77.69998 -11.1,14.56875 -16.64999,-12.4875 V 220.5 Z M 72.500011,202 H 118.75 v -36.99999 h 18.49999 V 202 h 46.24999 V 119.67497 L 128,77.35623 72.500011,119.67497 Z M 54.000018,72.49999 q 0,-11.5625 8.09375,-19.65625 8.09374,-8.09374 19.656241,-8.09374 3.931248,0 6.590622,-2.65938 Q 91.000006,39.43125 91.000006,35.5 H 109.5 q 0,11.5625 -8.09375,19.65624 -8.093745,8.09375 -19.656242,8.09375 -3.931249,0 -6.590623,2.65937 -2.659374,2.65938 -2.659374,6.59063 z M 72.500011,202 H 183.49998 Z"
       id="path13575"
       style="fill:#43aa8b;fill-opacity:0.988235;stroke-width:0.23125" /></g></svg>
